<svg version="1.1" id="Layer_1" xmlns="http://www.w3.org/2000/svg" xmlns:xlink="http://www.w3.org/1999/xlink" x="0px" y="0px"
	 width="100%" viewBox="0 0 2048 1536" enable-background="new 0 0 2048 1536" xml:space="preserve">
<path fill="none" opacity="1.000000" stroke="#000000" stroke-linecap="round" stroke-linejoin="round" stroke-width="10.000000"
	d="
M1063.500000,1137.500000 
	C1071.990112,1137.761108 1079.920776,1135.195435 1088.034058,1133.133789 
	C1100.331421,1130.009033 1112.805542,1127.567017 1124.998657,1123.995483 
	C1144.541260,1118.271240 1163.475220,1110.983154 1182.027954,1102.561646 
	C1214.724121,1087.719849 1244.711670,1068.543091 1272.426636,1045.910156 
	C1300.888794,1022.666809 1325.858276,995.973877 1346.418335,965.445007 
	C1361.074341,943.682922 1373.695923,920.687439 1384.982178,896.991516 
	C1396.220581,873.396423 1405.376099,848.929565 1412.745361,823.924988 
	C1417.060425,809.284180 1420.767944,794.327393 1422.604858,779.012573 
	C1423.643555,770.351807 1424.259644,761.662537 1425.227905,753.025574 
	C1426.221436,744.163086 1425.961426,735.316528 1426.295166,726.492249 
	C1426.678345,716.358948 1425.728516,706.148926 1424.940063,696.004639 
	C1424.031616,684.317871 1423.222412,672.576904 1421.356201,661.023193 
	C1419.132935,647.258057 1416.502930,633.486023 1412.873413,620.034119 
	C1402.290405,580.810303 1386.515503,543.773560 1364.512573,509.491943 
	C1349.439209,486.006989 1332.283325,464.165619 1312.449951,444.550629 
	C1288.601074,420.964417 1262.213867,400.675659 1233.047852,383.916687 
	C1201.842529,365.985718 1168.751587,352.836243 1133.962158,344.151367 
	C1111.380371,338.513977 1088.346191,335.002441 1065.001099,333.975647 
	C1043.474487,333.028778 1021.924744,332.740967 1000.512207,335.110138 
	C967.127136,338.803925 934.527893,346.159027 902.986328,357.963531 
	C885.894165,364.360321 869.118469,371.480621 853.033875,380.063507 
	C826.442200,394.253082 801.565674,411.011505 778.436462,430.424347 
	C764.841309,441.834991 752.106567,454.132294 740.107910,467.099854 
	C716.850830,492.235199 696.892151,519.866821 680.500549,550.000305 
	C663.345215,581.537842 649.960144,614.506104 641.337708,649.459961 
	C637.899536,663.398071 634.896057,677.400818 632.708374,691.532227 
	C631.565918,698.912048 630.911011,706.471436 630.290344,713.982666 
	C629.257141,726.485657 628.511902,738.963135 628.490784,751.500000 
	C628.462341,768.396667 629.409729,785.268433 631.620300,801.984070 
	C634.856812,826.457458 640.289490,850.458191 647.888611,874.035889 
	C662.346619,918.894409 684.159363,959.638977 713.440979,996.546875 
	C731.755432,1019.631348 752.633911,1040.016357 775.475891,1058.529785 
	C791.330933,1071.380249 808.245178,1082.705078 825.565186,1093.394409 
	C835.124939,1099.294434 846.070923,1102.400757 856.510010,1106.474365 
	C865.089783,1109.822754 874.046082,1112.084595 883.027832,1113.859009 
	C892.905701,1115.810669 903.015442,1116.561890 912.995117,1118.033081 
	C921.019165,1119.215942 929.002197,1118.486938 936.999512,1117.992065 
	C949.960083,1117.189819 962.129517,1113.421509 972.904236,1106.354004 
	C980.380554,1101.450073 984.673523,1093.577271 988.592407,1085.545044 
	C993.100464,1076.305176 993.808105,1066.323364 995.524902,1056.504395 
	C995.850769,1054.640503 996.499939,1052.833374 996.999939,1051.000000 
"/>
<path fill="none" opacity="1.000000" stroke="#000000" stroke-linecap="round" stroke-linejoin="round" stroke-width="8.000000"
	d="
M1319.500000,765.500000 
	C1318.766235,755.369385 1320.284912,745.434265 1321.945068,735.490845 
	C1322.463867,732.382935 1322.453979,729.167664 1322.479858,725.999817 
	C1322.620850,708.769531 1322.545776,691.578552 1319.571533,674.487549 
	C1316.238770,655.335754 1312.655029,636.256775 1307.499390,617.500183 
	C1305.026245,608.503052 1301.278687,600.004028 1297.531982,591.485901 
	C1289.126709,572.376709 1280.259521,553.522034 1267.987305,536.509094 
	C1249.797485,511.292267 1230.514893,486.943939 1205.920044,467.601715 
	C1184.760254,450.960999 1161.820068,437.100250 1136.503662,427.490204 
	C1122.279175,422.090637 1108.104370,416.722992 1093.030273,413.841522 
	C1083.214355,411.965149 1073.424072,410.231262 1063.522583,408.839569 
	C1053.029785,407.364777 1042.567261,406.391754 1032.000244,406.520020 
	C1018.088684,406.688782 1004.276917,407.962067 990.491516,409.940918 
	C960.250854,414.281891 931.671326,423.754791 903.962585,436.418152 
	C884.284302,445.411469 867.007690,457.936005 849.987610,470.983826 
	C834.562012,482.809296 820.370605,496.005615 807.579041,510.569427 
	C788.360535,532.450439 772.753174,556.785950 759.950317,582.975708 
	C747.150696,609.158813 738.025635,636.605530 732.181152,665.037231 
	C728.436279,683.254456 726.573059,701.803894 725.815979,720.492554 
	C725.136841,737.256226 726.000000,753.884155 727.589722,770.491394 
	C729.159119,786.886658 732.331238,803.114624 736.666199,818.954529 
	C743.681946,844.589539 753.435242,869.219910 766.439392,892.533813 
	C778.460388,914.085205 792.771606,933.829224 809.400330,952.090759 
	C826.895630,971.304138 846.712463,987.526489 868.498535,1001.502258 
	C883.062378,1010.844849 898.499023,1018.475647 914.510803,1024.973267 
	C915.427490,1025.345337 916.500000,1025.333252 917.500000,1025.500000 
"/>
<path fill="none" opacity="1.000000" stroke="#000000" stroke-linecap="round" stroke-linejoin="round" stroke-width="5.000000"
	d="
M995.000000,1048.500000 
	C997.577087,1042.223511 996.992188,1035.522583 997.437622,1028.995728 
	C998.554321,1012.631653 997.187866,996.316833 996.064026,979.995605 
	C995.664246,974.189819 996.241638,968.321411 995.954468,962.502258 
	C995.106262,945.316345 994.614929,928.085876 992.395935,911.013550 
	C991.161682,901.517700 989.825073,892.050598 988.925232,882.507019 
	C987.728333,869.811768 985.947021,857.172668 984.520081,844.497742 
	C983.677795,837.015991 982.991943,829.520264 982.399719,822.007935 
	C981.241455,807.314270 979.162476,792.691223 978.094604,777.993103 
	C977.025208,763.274231 975.949524,748.471069 980.470886,733.990906 
	C982.347595,727.980774 986.271179,723.196472 990.109924,718.591614 
	C1000.393616,706.255737 1007.441711,693.095093 1009.428284,676.551453 
	C1010.925171,664.086243 1010.246216,651.848511 1010.606018,639.503113 
	C1011.169739,620.164978 1011.057251,600.830872 1010.899048,581.500854 
	C1010.809937,570.607178 1010.263672,559.712708 1007.685303,548.955566 
	C1006.606689,544.455688 1006.180725,539.652039 1005.650085,534.982971 
	C1005.291504,531.827942 1003.989258,529.704224 1002.081604,527.431458 
	C1000.769653,525.868469 999.717224,524.223083 997.506042,524.542053 
	C994.763306,524.937744 993.659302,527.076355 992.999878,529.499939 
	C991.440308,535.231323 991.045288,541.148926 991.081116,546.999512 
	C991.199341,566.334106 991.770020,585.665710 991.954956,605.000427 
	C992.042786,614.182312 991.670776,623.361572 990.585327,632.510132 
	C990.287170,635.023071 989.145325,637.334229 989.372986,640.010803 
	C989.509827,641.619568 988.567932,643.440796 986.502502,644.009033 
	C984.220276,644.636841 983.309570,642.736633 982.572815,641.458069 
	C979.205017,635.613586 978.910828,629.034912 978.488037,622.500793 
	C977.873047,612.997742 979.114502,603.364563 978.200684,594.029297 
	C976.502869,576.685547 978.201599,559.270691 976.030334,541.996216 
	C975.530457,538.018799 976.718079,533.911865 975.029114,529.987488 
	C973.999146,527.594177 973.174255,525.025269 970.000122,525.037109 
	C966.760620,525.049316 965.125977,526.908936 963.906494,529.962646 
	C960.984131,537.280640 962.131470,544.546814 962.898926,552.010376 
	C964.111816,563.804688 964.721558,575.663147 965.482300,587.501160 
	C966.071045,596.662109 966.802856,605.829895 966.906372,615.001038 
	C966.992310,622.619507 965.521851,630.122192 963.546143,637.512329 
	C962.717163,640.613403 961.631104,643.284912 957.998047,643.460144 
	C954.290100,643.638977 952.802307,640.991577 951.463684,638.016357 
	C947.948608,630.203003 947.191956,621.848633 945.869263,613.520752 
	C943.695435,599.834106 945.159607,586.120850 945.367676,572.505615 
	C945.561340,559.835632 943.873169,547.148926 945.491028,534.498840 
	C945.895508,531.335693 944.591431,528.757385 942.093201,526.642212 
	C935.641968,528.897583 934.180115,530.808716 933.996704,537.499939 
	C933.703308,548.208130 931.669006,558.760254 931.391418,569.497192 
	C931.085327,581.330933 930.205933,593.148926 929.791382,604.992676 
	C929.388733,616.496521 929.859741,628.067444 928.778137,639.478943 
	C927.683838,651.023132 928.992676,662.553589 927.861755,673.986328 
	C926.724976,685.478088 930.939392,694.828491 936.932678,704.043762 
	C943.833740,714.654785 949.854492,725.723938 952.109375,738.480652 
	C952.584473,741.168518 952.895874,743.797729 953.013489,746.499390 
	C953.950562,768.020569 952.102356,789.496521 951.763733,810.996277 
	C951.580383,822.640137 949.485657,834.277344 948.895447,845.994751 
	C948.407227,855.687195 947.133179,865.349304 945.974609,874.996948 
	C942.798889,901.440857 943.769653,928.005981 944.307007,954.493774 
	C944.523865,965.184998 943.931946,976.075684 946.403137,986.772400 
	C949.488831,1000.129578 954.950623,1012.547852 962.227356,1023.853638 
	C969.291748,1034.829590 979.929260,1042.236572 991.914978,1047.929077 
	C1000.487183,1052.000366 1009.378662,1053.315918 1018.494751,1054.539307 
	C1027.250854,1055.714355 1035.897949,1054.150391 1044.474487,1053.255737 
	C1051.736938,1052.498291 1058.977539,1050.478516 1066.016846,1048.048828 
	C1080.374512,1043.093140 1092.998535,1035.562744 1102.978394,1023.981384 
	C1107.442383,1018.801147 1109.674438,1012.505432 1111.535278,1006.010132 
	C1114.772217,994.710938 1117.867920,983.429626 1117.521362,971.499390 
	C1117.041870,954.996155 1117.730835,938.497620 1117.849243,921.998901 
	C1117.940063,909.346436 1119.198242,896.620667 1117.006104,883.998962 
	C1114.988770,872.383240 1114.330078,860.598572 1112.135132,848.974487 
	C1108.785889,831.238586 1105.808594,813.394775 1103.709839,795.475403 
	C1102.572632,785.764160 1103.367676,775.815918 1104.655029,765.987549 
	C1105.486938,759.634949 1106.410034,753.312561 1107.449951,746.991760 
	C1109.066040,737.168640 1114.107544,729.029175 1119.493652,720.995789 
	C1126.186523,711.013367 1133.702637,701.457947 1139.274902,690.881409 
	C1145.903809,678.299072 1147.667114,664.140686 1149.128296,650.013245 
	C1150.186890,639.778564 1149.856201,629.671692 1149.018066,619.498535 
	C1148.265991,610.370300 1145.503540,601.719360 1142.999878,593.000000 
	C1139.637573,581.289795 1135.684082,569.755310 1130.406494,558.794983 
	C1124.771973,547.093445 1116.496704,537.068420 1104.872925,531.254150 
	C1095.809937,526.720886 1085.798950,527.133606 1076.483032,532.470337 
	C1067.101929,537.844360 1061.588745,546.357544 1056.410767,555.449158 
	C1050.242554,566.279114 1047.157471,578.003418 1044.436401,589.985535 
	C1041.215698,604.168335 1037.989868,618.328308 1039.030884,632.997803 
	C1040.455078,653.066101 1043.445801,672.831360 1051.501465,691.499390 
	C1054.989136,699.581238 1059.879272,706.791992 1065.522095,713.481384 
	C1072.666870,721.951294 1076.320557,732.162781 1078.775879,742.552979 
	C1081.082886,752.315430 1082.686523,762.334045 1083.078247,772.497009 
	C1083.592651,785.842590 1085.263550,799.163269 1085.339478,812.500916 
	C1085.422852,827.117004 1082.933716,841.568481 1080.622925,856.019653 
	C1078.296387,870.569580 1075.576172,885.076904 1075.854126,900.002686 
	C1076.106567,913.568237 1076.818970,927.015137 1078.232178,940.528015 
	C1079.417114,951.857300 1080.579712,963.194153 1082.030273,974.496094 
	C1082.504150,978.187561 1083.333374,981.833313 1084.000000,985.500000 
"/>
</svg>